<svg xmlns="http://www.w3.org/2000/svg" viewBox="0 0 800 600" width="800" height="600"><defs><linearGradient id="sky" x1="0" y1="0" x2="0" y2="1"><stop offset="0" stop-color="#e9f1f6"/><stop offset="1" stop-color="#f8f1e4"/></linearGradient><linearGradient id="wood" x1="0" y1="0" x2="0" y2="1"><stop offset="0" stop-color="#d3aa72"/><stop offset="1" stop-color="#a97f4c"/></linearGradient><linearGradient id="glass" x1="0" y1="0" x2="1" y2="1"><stop offset="0" stop-color="#e2edf4"/><stop offset="1" stop-color="#a9c6d8"/></linearGradient></defs><rect width="800" height="600" fill="url(#sky)"/><rect x="0" y="464" width="800" height="136" fill="#c2cfa4"/><path d="M0 490 H800 V600 H0 Z" fill="#ab9578"/><g stroke="#93a877" stroke-width="3" opacity="0.6"><path d="M12 488 l4 -12 l3 12"/><path d="M52 488 l4 -12 l3 12"/><path d="M92 488 l4 -12 l3 12"/><path d="M132 488 l4 -12 l3 12"/><path d="M172 488 l4 -12 l3 12"/><path d="M212 488 l4 -12 l3 12"/><path d="M252 488 l4 -12 l3 12"/><path d="M292 488 l4 -12 l3 12"/><path d="M332 488 l4 -12 l3 12"/><path d="M372 488 l4 -12 l3 12"/><path d="M412 488 l4 -12 l3 12"/><path d="M452 488 l4 -12 l3 12"/><path d="M492 488 l4 -12 l3 12"/><path d="M532 488 l4 -12 l3 12"/><path d="M572 488 l4 -12 l3 12"/><path d="M612 488 l4 -12 l3 12"/><path d="M652 488 l4 -12 l3 12"/><path d="M692 488 l4 -12 l3 12"/><path d="M732 488 l4 -12 l3 12"/><path d="M772 488 l4 -12 l3 12"/></g><ellipse cx="400.0" cy="492" rx="265.0" ry="20" fill="#000" opacity="0.13"/><rect x="156" y="235" width="18" height="235" fill="#8f7a5a"/><rect x="215" y="235" width="18" height="235" fill="#8f7a5a"/><rect x="274" y="235" width="18" height="235" fill="#8f7a5a"/><rect x="332" y="235" width="18" height="235" fill="#8f7a5a"/><rect x="391" y="235" width="18" height="235" fill="#8f7a5a"/><rect x="450" y="235" width="18" height="235" fill="#8f7a5a"/><rect x="508" y="235" width="18" height="235" fill="#8f7a5a"/><rect x="567" y="235" width="18" height="235" fill="#8f7a5a"/><rect x="626" y="235" width="18" height="235" fill="#8f7a5a"/><rect x="165" y="235" width="470" height="16" fill="#d8c8ac"/><rect x="165" y="352" width="470" height="16" fill="#d8c8ac"/><rect x="165" y="452" width="470" height="16" fill="#d8c8ac"/><path d="M165 235 L400.0 161 L635 235" fill="none" stroke="#5a4a38" stroke-width="14"/><rect x="237" y="210" width="12" height="260" fill="#d8c8ac" opacity="0.9"/><rect x="316" y="186" width="12" height="284" fill="#d8c8ac" opacity="0.9"/><rect x="394" y="161" width="12" height="309" fill="#d8c8ac" opacity="0.9"/><rect x="472" y="186" width="12" height="284" fill="#d8c8ac" opacity="0.9"/><rect x="551" y="210" width="12" height="260" fill="#d8c8ac" opacity="0.9"/><rect x="392.0" y="161" width="16" height="309" fill="#8f7a5a" opacity="0.55"/><path d="M145 235 L400.0 149 L655 235" fill="none" stroke="#8a7a63" stroke-width="6"/></svg>