<svg xmlns="http://www.w3.org/2000/svg" viewBox="0 0 800 600" width="800" height="600"><defs><linearGradient id="sky" x1="0" y1="0" x2="0" y2="1"><stop offset="0" stop-color="#e9f1f6"/><stop offset="1" stop-color="#f8f1e4"/></linearGradient><linearGradient id="wood" x1="0" y1="0" x2="0" y2="1"><stop offset="0" stop-color="#d3aa72"/><stop offset="1" stop-color="#a97f4c"/></linearGradient><linearGradient id="glass" x1="0" y1="0" x2="1" y2="1"><stop offset="0" stop-color="#e2edf4"/><stop offset="1" stop-color="#a9c6d8"/></linearGradient></defs><rect width="800" height="600" fill="url(#sky)"/><rect x="0" y="464" width="800" height="136" fill="#c2cfa4"/><path d="M0 490 H800 V600 H0 Z" fill="#ab9578"/><g stroke="#93a877" stroke-width="3" opacity="0.6"><path d="M12 488 l4 -12 l3 12"/><path d="M52 488 l4 -12 l3 12"/><path d="M92 488 l4 -12 l3 12"/><path d="M132 488 l4 -12 l3 12"/><path d="M172 488 l4 -12 l3 12"/><path d="M212 488 l4 -12 l3 12"/><path d="M252 488 l4 -12 l3 12"/><path d="M292 488 l4 -12 l3 12"/><path d="M332 488 l4 -12 l3 12"/><path d="M372 488 l4 -12 l3 12"/><path d="M412 488 l4 -12 l3 12"/><path d="M452 488 l4 -12 l3 12"/><path d="M492 488 l4 -12 l3 12"/><path d="M532 488 l4 -12 l3 12"/><path d="M572 488 l4 -12 l3 12"/><path d="M612 488 l4 -12 l3 12"/><path d="M652 488 l4 -12 l3 12"/><path d="M692 488 l4 -12 l3 12"/><path d="M732 488 l4 -12 l3 12"/><path d="M772 488 l4 -12 l3 12"/></g><rect x="182.0" y="470" width="18" height="130" fill="#8a7a63"/><rect x="286.5" y="470" width="18" height="130" fill="#8a7a63"/><rect x="391.0" y="470" width="18" height="130" fill="#8a7a63"/><rect x="495.5" y="470" width="18" height="130" fill="#8a7a63"/><rect x="600.0" y="470" width="18" height="130" fill="#8a7a63"/><ellipse cx="400.0" cy="492" rx="265.0" ry="20" fill="#000" opacity="0.13"/><rect x="165" y="235" width="470" height="235" fill="url(#wood)"/><g stroke="#a97f4c" stroke-width="1.6" opacity="0.55"><line x1="165" y1="251" x2="635" y2="251"/><line x1="165" y1="267" x2="635" y2="267"/><line x1="165" y1="283" x2="635" y2="283"/><line x1="165" y1="299" x2="635" y2="299"/><line x1="165" y1="315" x2="635" y2="315"/><line x1="165" y1="331" x2="635" y2="331"/><line x1="165" y1="347" x2="635" y2="347"/><line x1="165" y1="363" x2="635" y2="363"/><line x1="165" y1="379" x2="635" y2="379"/><line x1="165" y1="395" x2="635" y2="395"/><line x1="165" y1="411" x2="635" y2="411"/><line x1="165" y1="427" x2="635" y2="427"/><line x1="165" y1="443" x2="635" y2="443"/><line x1="165" y1="459" x2="635" y2="459"/></g><rect x="165" y="235" width="16" height="235" fill="#8a6236"/><rect x="619" y="235" width="16" height="235" fill="#8a6236"/><rect x="159" y="452" width="482" height="18" fill="#8a6236"/><path d="M139 241 L400.0 157 L661 241 Z" fill="#5d4630"/><path d="M139 241 L400.0 157" stroke="#3c2c1e" stroke-width="3" fill="none"/><path d="M661 241 L400.0 157" stroke="#3c2c1e" stroke-width="3" fill="none"/><rect x="340.0" y="149" width="120" height="10" rx="4" fill="#3c2c1e"/><rect x="287.0" y="293" width="96" height="84" fill="url(#glass)" stroke="#6b533a" stroke-width="4"/><line x1="335.0" y1="293" x2="335.0" y2="377" stroke="#6b533a" stroke-width="3"/><line x1="287.0" y1="335.0" x2="383.0" y2="335.0" stroke="#6b533a" stroke-width="3"/><path d="M293.0 369 L375.0 299" stroke="#ffffff" stroke-width="4" opacity="0.45"/><rect x="281.0" y="285" width="108" height="10" fill="#f3ece0"/><rect x="417.0" y="293" width="96" height="84" fill="url(#glass)" stroke="#6b533a" stroke-width="4"/><line x1="465.0" y1="293" x2="465.0" y2="377" stroke="#6b533a" stroke-width="3"/><line x1="417.0" y1="335.0" x2="513.0" y2="335.0" stroke="#6b533a" stroke-width="3"/><path d="M423.0 369 L505.0 299" stroke="#ffffff" stroke-width="4" opacity="0.45"/><rect x="411.0" y="285" width="108" height="10" fill="#f3ece0"/><rect x="497" y="292" width="104" height="178" fill="#a97f4c" stroke="#6b533a" stroke-width="4"/><g stroke="#8a6236" stroke-width="1.6" opacity="0.7"><line x1="501" y1="304" x2="597" y2="304"/><line x1="501" y1="317" x2="597" y2="317"/><line x1="501" y1="330" x2="597" y2="330"/><line x1="501" y1="343" x2="597" y2="343"/><line x1="501" y1="356" x2="597" y2="356"/><line x1="501" y1="369" x2="597" y2="369"/><line x1="501" y1="382" x2="597" y2="382"/><line x1="501" y1="395" x2="597" y2="395"/><line x1="501" y1="408" x2="597" y2="408"/><line x1="501" y1="421" x2="597" y2="421"/><line x1="501" y1="434" x2="597" y2="434"/><line x1="501" y1="447" x2="597" y2="447"/><line x1="501" y1="460" x2="597" y2="460"/></g><circle cx="589" cy="381.0" r="4" fill="#e8dcc4" stroke="#6b533a" stroke-width="1.5"/><rect x="499" y="288" width="100" height="8" fill="#8a6236"/><rect x="483" y="470" width="132" height="12" fill="#b9ab93"/><rect x="473" y="482" width="152" height="12" fill="#a9977f"/><rect x="125" y="536" width="550" height="14" fill="#f3ece0"/><rect x="133" y="476" width="14" height="62" fill="#8a6236"/><rect x="627" y="476" width="14" height="62" fill="#8a6236"/></svg>