<svg xmlns="http://www.w3.org/2000/svg" viewBox="0 0 640 360" width="640" height="360">
  <defs>
    <linearGradient id="bg" x1="0" y1="0" x2="1" y2="1">
      <stop offset="0" stop-color="#101a2e"/><stop offset="1" stop-color="#0a0f1a"/>
    </linearGradient>
    <linearGradient id="ln" x1="0" y1="0" x2="1" y2="0">
      <stop offset="0" stop-color="#4f8cff" stop-opacity=".9"/>
      <stop offset="1" stop-color="#8b5cf6" stop-opacity=".55"/>
    </linearGradient>
  </defs>
  <rect width="640" height="360" fill="url(#bg)"/>
  <g stroke="url(#ln)" fill="none" stroke-width="1.4" opacity=".85">
    <path d="M40 300 L150 210 L260 262 L370 150 L480 214 L600 120"/>
    <path d="M40 330 L150 245 L260 292 L370 188 L480 250 L600 165"/>
    <path d="M40 270 L150 178 L260 232 L370 114 L480 180 L600 82"/>
  </g>
  <g stroke="#4f8cff" stroke-width="1.6" fill="none" opacity=".95">
    <path d="M470 90 L545 118 L528 196 L452 168 Z"/>
    <path d="M470 90 L452 168"/>
    <path d="M545 118 L528 196"/>
  </g>
  <g fill="#4f8cff" opacity=".8">
    <circle cx="470" cy="90" r="3"/><circle cx="545" cy="118" r="3"/>
    <circle cx="528" cy="196" r="3"/><circle cx="452" cy="168" r="3"/>
  </g>
  <text x="40" y="66" font-family="monospace" font-size="13" fill="#5f7391">TEIVRIM-ENGINE</text>
</svg>
